<svg width="1440" height="649" viewBox="0 0 1440 649" fill="none" xmlns="http://www.w3.org/2000/svg">
<path d="M0 50C0 22.3858 22.3858 0 50 0H1390C1417.61 0 1440 22.3858 1440 50V599C1440 626.614 1417.61 649 1390 649H50C22.3857 649 0 626.614 0 599V50Z" fill="#050505"/>
<path d="M41.0667 169V168.36L66.6667 85.8H92.48L118.08 168.36V169H101.227L80.32 98.4933H77.76L56.64 169H41.0667ZM61.0133 147.347L64.64 134.76H93.3333L96.96 147.347H61.0133ZM162.325 170.387C157.561 170.387 153.721 169.427 150.805 167.507C147.961 165.587 145.827 163.311 144.405 160.68H141.845V169H127.338V83.6667H143.125V112.253H145.685C147.249 109.622 149.383 107.524 152.085 105.96C154.787 104.396 158.236 103.613 162.432 103.613C168.049 103.613 172.743 105 176.512 107.773C180.352 110.547 183.232 114.422 185.152 119.4C187.072 124.378 188.032 130.209 188.032 136.893C188.032 143.436 187.072 149.231 185.152 154.28C183.232 159.329 180.387 163.276 176.618 166.12C172.849 168.964 168.085 170.387 162.325 170.387ZM158.165 158.867C162.432 158.867 165.738 157.018 168.085 153.32C170.432 149.622 171.605 144.182 171.605 137C171.605 129.818 170.432 124.378 168.085 120.68C165.738 116.982 162.432 115.133 158.165 115.133C153.543 115.133 149.881 117.124 147.178 121.107C144.476 125.018 143.125 130.316 143.125 137C143.125 143.684 144.476 149.018 147.178 153C149.881 156.911 153.543 158.867 158.165 158.867ZM226.648 170.6C216.266 170.6 208.515 167.578 203.395 161.533C198.346 155.418 195.822 147.24 195.822 137C195.822 126.76 198.346 118.618 203.395 112.573C208.515 106.458 216.266 103.4 226.648 103.4C237.031 103.4 244.782 106.458 249.902 112.573C255.022 118.618 257.582 126.76 257.582 137C257.582 147.24 255.022 155.418 249.902 161.533C244.782 167.578 237.031 170.6 226.648 170.6ZM226.648 159.613C231.697 159.613 235.359 157.693 237.635 153.853C239.982 150.013 241.155 144.396 241.155 137C241.155 129.604 239.982 123.987 237.635 120.147C235.359 116.307 231.697 114.387 226.648 114.387C221.671 114.387 218.008 116.307 215.662 120.147C213.315 123.987 212.142 129.604 212.142 137C212.142 144.396 213.315 150.013 215.662 153.853C218.008 157.693 221.671 159.613 226.648 159.613ZM290.282 170.6C283.028 170.6 277.624 168.36 274.068 163.88C270.513 159.329 268.735 153.284 268.735 145.747V105H284.522V142.973C284.522 147.596 285.339 151.187 286.975 153.747C288.682 156.307 291.384 157.587 295.082 157.587C299.562 157.587 303.011 155.844 305.428 152.36C307.846 148.876 309.055 144.609 309.055 139.56V105H324.842V169H310.655V159.4H308.095C307.028 162.671 305.037 165.373 302.122 167.507C299.277 169.569 295.331 170.6 290.282 170.6ZM350.28 169C348.644 167.08 347.329 164.769 346.333 162.067C345.409 159.364 344.947 155.311 344.947 149.907V116.307H336.2V105H345.16V89H360.627V105H371.08V116.307H360.733V148.093C360.733 153.782 361.338 158.12 362.547 161.107C363.827 164.022 365.356 166.44 367.133 168.36V169H350.28ZM44.1067 259.667V217H51.36V221.16H52.64C53.3511 219.844 54.4178 218.707 55.84 217.747C57.2978 216.787 59.2178 216.307 61.6 216.307C64.48 216.307 66.8622 217.018 68.7467 218.44C70.6311 219.862 72.0533 221.836 73.0133 224.36C73.9733 226.849 74.4533 229.747 74.4533 233.053C74.4533 236.36 73.9733 239.276 73.0133 241.8C72.0533 244.289 70.6133 246.227 68.6933 247.613C66.8089 249 64.4622 249.693 61.6533 249.693C59.5556 249.693 57.8311 249.302 56.48 248.52C55.1289 247.738 54.0622 246.689 53.28 245.373H52V259.667H44.1067ZM59.52 243.933C61.6533 243.933 63.3067 243.009 64.48 241.16C65.6533 239.311 66.24 236.591 66.24 233C66.24 229.409 65.6533 226.689 64.48 224.84C63.3067 222.991 61.6533 222.067 59.52 222.067C57.2089 222.067 55.3778 223.062 54.0267 225.053C52.6756 227.009 52 229.658 52 233C52 236.342 52.6756 239.009 54.0267 241C55.3778 242.956 57.2089 243.933 59.52 243.933ZM83.0417 249C82.0817 247.898 81.3883 246.653 80.9617 245.267C80.535 243.844 80.3217 241.907 80.3217 239.453V206.333H88.2683V238.6C88.2683 241.338 88.5706 243.453 89.175 244.947C89.7794 246.44 90.5617 247.684 91.5217 248.68V249H83.0417ZM107.558 249.693C104.643 249.693 102.225 248.982 100.305 247.56C98.385 246.138 96.945 244.164 95.985 241.64C95.0606 239.116 94.5983 236.218 94.5983 232.947C94.5983 229.604 95.0783 226.689 96.0383 224.2C96.9983 221.711 98.4383 219.773 100.358 218.387C102.278 217 104.678 216.307 107.558 216.307C109.834 216.307 111.683 216.769 113.105 217.693C114.563 218.582 115.647 219.738 116.358 221.16H117.638V217H124.892V249H117.638V244.84H116.358C115.647 246.156 114.581 247.293 113.158 248.253C111.736 249.213 109.869 249.693 107.558 249.693ZM109.478 243.933C111.789 243.933 113.621 242.956 114.972 241C116.358 239.009 117.052 236.342 117.052 233C117.052 229.658 116.358 227.009 114.972 225.053C113.621 223.062 111.789 222.067 109.478 222.067C107.381 222.067 105.727 222.991 104.518 224.84C103.345 226.689 102.758 229.409 102.758 233C102.758 236.591 103.345 239.311 104.518 241.16C105.727 243.009 107.381 243.933 109.478 243.933ZM137.64 249C136.822 248.04 136.164 246.884 135.667 245.533C135.204 244.182 134.973 242.156 134.973 239.453V222.653H130.6V217H135.08V209H142.813V217H148.04V222.653H142.867V238.547C142.867 241.391 143.169 243.56 143.773 245.053C144.413 246.511 145.178 247.72 146.067 248.68V249H137.64ZM155.758 249V222.653H151.225V217H155.758V215.027C155.758 213.249 156.061 211.702 156.665 210.387C157.305 209.071 158.354 208.058 159.812 207.347C161.305 206.6 163.332 206.227 165.892 206.227C166.852 206.227 167.776 206.28 168.665 206.387V211.933C168.203 211.827 167.616 211.773 166.905 211.773C165.589 211.773 164.683 212.058 164.185 212.627C163.687 213.196 163.438 214.084 163.438 215.293V217H168.665V222.653H163.438V249H155.758ZM187.637 249.8C182.446 249.8 178.57 248.289 176.01 245.267C173.486 242.209 172.223 238.12 172.223 233C172.223 227.88 173.486 223.809 176.01 220.787C178.57 217.729 182.446 216.2 187.637 216.2C192.828 216.2 196.703 217.729 199.263 220.787C201.823 223.809 203.103 227.88 203.103 233C203.103 238.12 201.823 242.209 199.263 245.267C196.703 248.289 192.828 249.8 187.637 249.8ZM187.637 244.307C190.161 244.307 191.992 243.347 193.13 241.427C194.303 239.507 194.89 236.698 194.89 233C194.89 229.302 194.303 226.493 193.13 224.573C191.992 222.653 190.161 221.693 187.637 221.693C185.148 221.693 183.317 222.653 182.143 224.573C180.97 226.493 180.383 229.302 180.383 233C180.383 236.698 180.97 239.507 182.143 241.427C183.317 243.347 185.148 244.307 187.637 244.307ZM209.053 249V217H216.253V222.76H217.533C217.747 221.729 218.138 220.751 218.707 219.827C219.276 218.902 220.164 218.156 221.373 217.587C222.582 216.982 224.2 216.68 226.227 216.68H227.773V223.88H225.64C222.582 223.88 220.36 224.662 218.973 226.227C217.622 227.791 216.947 230.156 216.947 233.32V249H209.053ZM233.482 249V217H240.735V221.8H242.015C242.619 220.2 243.579 218.867 244.895 217.8C246.246 216.733 248.131 216.2 250.548 216.2C252.753 216.2 254.584 216.698 256.042 217.693C257.535 218.689 258.655 220.058 259.402 221.8H260.682C261.322 220.164 262.335 218.831 263.722 217.8C265.108 216.733 266.975 216.2 269.322 216.2C272.806 216.2 275.384 217.338 277.055 219.613C278.726 221.853 279.562 224.858 279.562 228.627V249H271.668V230.013C271.668 227.702 271.277 225.907 270.495 224.627C269.748 223.347 268.522 222.707 266.815 222.707C264.753 222.707 263.171 223.578 262.068 225.32C261.002 227.062 260.468 229.196 260.468 231.72V249H252.575V230.013C252.575 227.702 252.184 225.907 251.402 224.627C250.655 223.347 249.446 222.707 247.775 222.707C245.713 222.707 244.131 223.578 243.028 225.32C241.926 227.062 241.375 229.196 241.375 231.72V249H233.482Z" fill="white"/>
<rect x="389" y="249" width="1001" height="338" rx="88" fill="white"/>
<rect x="304" y="206" width="85" height="85" rx="42.5" fill="white"/>
<path d="M520.72 347V320.68H511.2V315.8H536.4V320.68H526.88V347H520.72ZM540.689 347V315H546.609V325.96H547.569C548.129 324.893 548.889 324.04 549.849 323.4C550.809 322.733 552.116 322.4 553.769 322.4C556.463 322.4 558.463 323.253 559.769 324.96C561.076 326.64 561.729 328.893 561.729 331.72V347H555.809V332.76C555.809 331 555.489 329.653 554.849 328.72C554.236 327.76 553.236 327.28 551.849 327.28C550.196 327.28 548.903 327.933 547.969 329.24C547.063 330.52 546.609 332.12 546.609 334.04V347H540.689ZM567.549 347V323H573.469V347H567.549ZM570.509 320.08C569.442 320.08 568.629 319.8 568.069 319.24C567.509 318.653 567.229 317.907 567.229 317C567.229 316.093 567.509 315.36 568.069 314.8C568.629 314.213 569.442 313.92 570.509 313.92C571.575 313.92 572.389 314.213 572.949 314.8C573.509 315.36 573.789 316.093 573.789 317C573.789 317.907 573.509 318.653 572.949 319.24C572.389 319.8 571.575 320.08 570.509 320.08ZM588.323 347.6C585.763 347.6 583.709 347.187 582.163 346.36C580.616 345.533 579.469 344.48 578.723 343.2C578.003 341.92 577.603 340.627 577.522 339.32H583.163C583.296 340.04 583.576 340.72 584.003 341.36C584.456 341.973 585.056 342.467 585.803 342.84C586.549 343.187 587.483 343.36 588.602 343.36C589.909 343.36 590.869 343.12 591.483 342.64C592.096 342.16 592.403 341.533 592.403 340.76C592.403 340.067 592.123 339.48 591.562 339C591.029 338.52 590.176 338.08 589.003 337.68L586.123 336.72C584.763 336.24 583.509 335.72 582.363 335.16C581.243 334.573 580.336 333.827 579.642 332.92C578.976 332.013 578.642 330.853 578.642 329.44C578.642 327.333 579.429 325.64 581.003 324.36C582.602 323.053 584.829 322.4 587.683 322.4C589.763 322.4 591.469 322.733 592.803 323.4C594.136 324.04 595.136 324.92 595.803 326.04C596.496 327.133 596.896 328.36 597.003 329.72H591.562C591.429 328.733 591.029 327.947 590.362 327.36C589.696 326.773 588.736 326.48 587.483 326.48C586.389 326.48 585.563 326.707 585.003 327.16C584.443 327.587 584.162 328.173 584.162 328.92C584.162 329.667 584.443 330.293 585.003 330.8C585.589 331.28 586.483 331.72 587.683 332.12L590.523 333.04C591.883 333.467 593.123 333.973 594.243 334.56C595.389 335.12 596.283 335.853 596.923 336.76C597.589 337.667 597.923 338.84 597.923 340.28C597.923 342.467 597.096 344.24 595.443 345.6C593.816 346.933 591.443 347.6 588.323 347.6ZM611.752 347V323H617.672V347H611.752ZM614.712 320.08C613.645 320.08 612.832 319.8 612.272 319.24C611.712 318.653 611.432 317.907 611.432 317C611.432 316.093 611.712 315.36 612.272 314.8C612.832 314.213 613.645 313.92 614.712 313.92C615.779 313.92 616.592 314.213 617.152 314.8C617.712 315.36 617.992 316.093 617.992 317C617.992 317.907 617.712 318.653 617.152 319.24C616.592 319.8 615.779 320.08 614.712 320.08ZM632.526 347.6C629.966 347.6 627.912 347.187 626.366 346.36C624.819 345.533 623.672 344.48 622.926 343.2C622.206 341.92 621.806 340.627 621.726 339.32H627.366C627.499 340.04 627.779 340.72 628.206 341.36C628.659 341.973 629.259 342.467 630.006 342.84C630.752 343.187 631.686 343.36 632.806 343.36C634.112 343.36 635.072 343.12 635.686 342.64C636.299 342.16 636.606 341.533 636.606 340.76C636.606 340.067 636.326 339.48 635.766 339C635.232 338.52 634.379 338.08 633.206 337.68L630.326 336.72C628.966 336.24 627.712 335.72 626.566 335.16C625.446 334.573 624.539 333.827 623.846 332.92C623.179 332.013 622.846 330.853 622.846 329.44C622.846 327.333 623.632 325.64 625.206 324.36C626.806 323.053 629.032 322.4 631.886 322.4C633.966 322.4 635.672 322.733 637.006 323.4C638.339 324.04 639.339 324.92 640.006 326.04C640.699 327.133 641.099 328.36 641.206 329.72H635.766C635.632 328.733 635.232 327.947 634.566 327.36C633.899 326.773 632.939 326.48 631.686 326.48C630.592 326.48 629.766 326.707 629.206 327.16C628.646 327.587 628.366 328.173 628.366 328.92C628.366 329.667 628.646 330.293 629.206 330.8C629.792 331.28 630.686 331.72 631.886 332.12L634.726 333.04C636.086 333.467 637.326 333.973 638.446 334.56C639.592 335.12 640.486 335.853 641.126 336.76C641.792 337.667 642.126 338.84 642.126 340.28C642.126 342.467 641.299 344.24 639.646 345.6C638.019 346.933 635.646 347.6 632.526 347.6ZM659.355 347C658.742 346.28 658.248 345.413 657.875 344.4C657.528 343.387 657.355 341.867 657.355 339.84V327.24H654.075V323H657.435V317H663.235V323H667.155V327.24H663.275V339.16C663.275 341.293 663.502 342.92 663.955 344.04C664.435 345.133 665.008 346.04 665.675 346.76V347H659.355ZM671.424 347V315H677.344V325.96H678.304C678.864 324.893 679.624 324.04 680.584 323.4C681.544 322.733 682.85 322.4 684.504 322.4C687.197 322.4 689.197 323.253 690.504 324.96C691.81 326.64 692.464 328.893 692.464 331.72V347H686.544V332.76C686.544 331 686.224 329.653 685.584 328.72C684.97 327.76 683.97 327.28 682.584 327.28C680.93 327.28 679.637 327.933 678.704 329.24C677.797 330.52 677.344 332.12 677.344 334.04V347H671.424ZM708.083 347.6C704.376 347.6 701.55 346.467 699.603 344.2C697.656 341.907 696.683 338.827 696.683 334.96C696.683 332.373 697.11 330.147 697.963 328.28C698.843 326.413 700.123 324.973 701.803 323.96C703.51 322.92 705.576 322.4 708.003 322.4C711.523 322.4 714.203 323.48 716.043 325.64C717.91 327.773 718.843 330.92 718.843 335.08V336.4H702.443C702.576 338.533 703.123 340.227 704.083 341.48C705.043 342.707 706.376 343.32 708.083 343.32C709.416 343.32 710.483 342.933 711.283 342.16C712.083 341.387 712.63 340.44 712.923 339.32H718.563C718.296 340.84 717.75 342.227 716.923 343.48C716.096 344.707 714.95 345.707 713.483 346.48C712.043 347.227 710.243 347.6 708.083 347.6ZM702.483 332.6H713.083C712.976 330.653 712.483 329.147 711.603 328.08C710.75 327.013 709.536 326.48 707.963 326.48C706.39 326.48 705.136 327 704.203 328.04C703.27 329.053 702.696 330.573 702.483 332.6ZM732.877 355V323H738.317V326.12H739.277C739.81 325.133 740.61 324.28 741.677 323.56C742.77 322.84 744.21 322.48 745.997 322.48C748.157 322.48 749.944 323.013 751.357 324.08C752.77 325.147 753.837 326.627 754.557 328.52C755.277 330.387 755.637 332.56 755.637 335.04C755.637 337.52 755.277 339.707 754.557 341.6C753.837 343.467 752.757 344.92 751.317 345.96C749.904 347 748.144 347.52 746.037 347.52C744.464 347.52 743.17 347.227 742.157 346.64C741.144 346.053 740.344 345.267 739.757 344.28H738.797V355H732.877ZM744.437 343.2C746.037 343.2 747.277 342.507 748.157 341.12C749.037 339.733 749.477 337.693 749.477 335C749.477 332.307 749.037 330.267 748.157 328.88C747.277 327.493 746.037 326.8 744.437 326.8C742.704 326.8 741.33 327.547 740.317 329.04C739.304 330.507 738.797 332.493 738.797 335C738.797 337.507 739.304 339.507 740.317 341C741.33 342.467 742.704 343.2 744.437 343.2ZM762.078 347C761.358 346.173 760.838 345.24 760.518 344.2C760.198 343.133 760.038 341.68 760.038 339.84V315H765.998V339.2C765.998 341.253 766.225 342.84 766.678 343.96C767.131 345.08 767.718 346.013 768.438 346.76V347H762.078ZM780.466 347.52C778.279 347.52 776.466 346.987 775.026 345.92C773.586 344.853 772.506 343.373 771.786 341.48C771.092 339.587 770.746 337.413 770.746 334.96C770.746 332.453 771.106 330.267 771.826 328.4C772.546 326.533 773.626 325.08 775.066 324.04C776.506 323 778.306 322.48 780.466 322.48C782.172 322.48 783.559 322.827 784.626 323.52C785.719 324.187 786.532 325.053 787.066 326.12H788.026V323H793.466V347H788.026V343.88H787.066C786.532 344.867 785.732 345.72 784.666 346.44C783.599 347.16 782.199 347.52 780.466 347.52ZM781.906 343.2C783.639 343.2 785.012 342.467 786.026 341C787.066 339.507 787.586 337.507 787.586 335C787.586 332.493 787.066 330.507 786.026 329.04C785.012 327.547 783.639 326.8 781.906 326.8C780.332 326.8 779.092 327.493 778.186 328.88C777.306 330.267 776.866 332.307 776.866 335C776.866 337.693 777.306 339.733 778.186 341.12C779.092 342.507 780.332 343.2 781.906 343.2ZM803.027 347C802.414 346.28 801.92 345.413 801.547 344.4C801.2 343.387 801.027 341.867 801.027 339.84V327.24H797.747V323H801.107V317H806.907V323H810.827V327.24H806.947V339.16C806.947 341.293 807.174 342.92 807.627 344.04C808.107 345.133 808.68 346.04 809.347 346.76V347H803.027ZM816.616 347V327.24H813.216V323H816.616V321.52C816.616 320.187 816.842 319.027 817.296 318.04C817.776 317.053 818.562 316.293 819.656 315.76C820.776 315.2 822.296 314.92 824.216 314.92C824.936 314.92 825.629 314.96 826.296 315.04V319.2C825.949 319.12 825.509 319.08 824.976 319.08C823.989 319.08 823.309 319.293 822.936 319.72C822.562 320.147 822.376 320.813 822.376 321.72V323H826.296V327.24H822.376V347H816.616ZM840.524 347.6C836.631 347.6 833.724 346.467 831.804 344.2C829.911 341.907 828.964 338.84 828.964 335C828.964 331.16 829.911 328.107 831.804 325.84C833.724 323.547 836.631 322.4 840.524 322.4C844.418 322.4 847.324 323.547 849.244 325.84C851.164 328.107 852.124 331.16 852.124 335C852.124 338.84 851.164 341.907 849.244 344.2C847.324 346.467 844.418 347.6 840.524 347.6ZM840.524 343.48C842.418 343.48 843.791 342.76 844.644 341.32C845.524 339.88 845.964 337.773 845.964 335C845.964 332.227 845.524 330.12 844.644 328.68C843.791 327.24 842.418 326.52 840.524 326.52C838.658 326.52 837.284 327.24 836.404 328.68C835.524 330.12 835.084 332.227 835.084 335C835.084 337.773 835.524 339.88 836.404 341.32C837.284 342.76 838.658 343.48 840.524 343.48ZM856.587 347V323H861.987V327.32H862.947C863.107 326.547 863.4 325.813 863.827 325.12C864.254 324.427 864.92 323.867 865.827 323.44C866.734 322.987 867.947 322.76 869.467 322.76H870.627V328.16H869.027C866.734 328.16 865.067 328.747 864.027 329.92C863.014 331.093 862.507 332.867 862.507 335.24V347H856.587ZM874.908 347V323H880.348V326.6H881.308C881.761 325.4 882.481 324.4 883.468 323.6C884.481 322.8 885.895 322.4 887.708 322.4C889.361 322.4 890.735 322.773 891.828 323.52C892.948 324.267 893.788 325.293 894.348 326.6H895.308C895.788 325.373 896.548 324.373 897.588 323.6C898.628 322.8 900.028 322.4 901.788 322.4C904.401 322.4 906.335 323.253 907.588 324.96C908.841 326.64 909.468 328.893 909.468 331.72V347H903.548V332.76C903.548 331.027 903.255 329.68 902.668 328.72C902.108 327.76 901.188 327.28 899.908 327.28C898.361 327.28 897.175 327.933 896.348 329.24C895.548 330.547 895.148 332.147 895.148 334.04V347H889.228V332.76C889.228 331.027 888.935 329.68 888.348 328.72C887.788 327.76 886.881 327.28 885.628 327.28C884.081 327.28 882.895 327.933 882.068 329.24C881.241 330.547 880.828 332.147 880.828 334.04V347H874.908ZM925.084 347V315.8H931.204V347H925.084ZM955.143 347.52C952.983 347.52 951.196 346.987 949.783 345.92C948.369 344.853 947.303 343.373 946.583 341.48C945.863 339.587 945.503 337.413 945.503 334.96C945.503 332.453 945.863 330.267 946.583 328.4C947.303 326.533 948.369 325.08 949.783 324.04C951.223 323 952.996 322.48 955.103 322.48C956.703 322.48 957.996 322.773 958.983 323.36C959.996 323.947 960.796 324.733 961.383 325.72H962.342V315H968.262V347H962.823V343.88H961.863C961.329 344.867 960.516 345.72 959.422 346.44C958.356 347.16 956.929 347.52 955.143 347.52ZM956.703 343.2C958.409 343.2 959.769 342.467 960.782 341C961.822 339.507 962.342 337.507 962.342 335C962.342 332.493 961.822 330.507 960.782 329.04C959.769 327.547 958.409 326.8 956.703 326.8C955.103 326.8 953.863 327.493 952.983 328.88C952.102 330.267 951.662 332.307 951.662 335C951.662 337.693 952.102 339.733 952.983 341.12C953.863 342.507 955.103 343.2 956.703 343.2ZM984.224 347.6C980.517 347.6 977.69 346.467 975.744 344.2C973.797 341.907 972.824 338.827 972.824 334.96C972.824 332.373 973.25 330.147 974.104 328.28C974.984 326.413 976.264 324.973 977.944 323.96C979.65 322.92 981.717 322.4 984.144 322.4C987.664 322.4 990.344 323.48 992.184 325.64C994.05 327.773 994.984 330.92 994.984 335.08V336.4H978.584C978.717 338.533 979.264 340.227 980.224 341.48C981.184 342.707 982.517 343.32 984.224 343.32C985.557 343.32 986.624 342.933 987.424 342.16C988.224 341.387 988.77 340.44 989.064 339.32H994.704C994.437 340.84 993.89 342.227 993.064 343.48C992.237 344.707 991.09 345.707 989.624 346.48C988.184 347.227 986.384 347.6 984.224 347.6ZM978.624 332.6H989.224C989.117 330.653 988.624 329.147 987.744 328.08C986.89 327.013 985.677 326.48 984.104 326.48C982.53 326.48 981.277 327 980.344 328.04C979.41 329.053 978.837 330.573 978.624 332.6ZM1003.47 347L996.466 323.24V323H1002.43L1007.83 342.16H1008.79L1014.19 323H1019.67V323.24L1012.67 347H1003.47ZM1033.07 347.6C1029.36 347.6 1026.53 346.467 1024.59 344.2C1022.64 341.907 1021.67 338.827 1021.67 334.96C1021.67 332.373 1022.09 330.147 1022.95 328.28C1023.83 326.413 1025.11 324.973 1026.79 323.96C1028.49 322.92 1030.56 322.4 1032.99 322.4C1036.51 322.4 1039.19 323.48 1041.03 325.64C1042.89 327.773 1043.83 330.92 1043.83 335.08V336.4H1027.43C1027.56 338.533 1028.11 340.227 1029.07 341.48C1030.03 342.707 1031.36 343.32 1033.07 343.32C1034.4 343.32 1035.47 342.933 1036.27 342.16C1037.07 341.387 1037.61 340.44 1037.91 339.32H1043.55C1043.28 340.84 1042.73 342.227 1041.91 343.48C1041.08 344.707 1039.93 345.707 1038.47 346.48C1037.03 347.227 1035.23 347.6 1033.07 347.6ZM1027.47 332.6H1038.07C1037.96 330.653 1037.47 329.147 1036.59 328.08C1035.73 327.013 1034.52 326.48 1032.95 326.48C1031.37 326.48 1030.12 327 1029.19 328.04C1028.25 329.053 1027.68 330.573 1027.47 332.6ZM1050.17 347C1049.45 346.173 1048.93 345.24 1048.61 344.2C1048.29 343.133 1048.13 341.68 1048.13 339.84V315H1054.09V339.2C1054.09 341.253 1054.32 342.84 1054.77 343.96C1055.23 345.08 1055.81 346.013 1056.53 346.76V347H1050.17ZM1070.4 347.6C1066.51 347.6 1063.6 346.467 1061.68 344.2C1059.79 341.907 1058.84 338.84 1058.84 335C1058.84 331.16 1059.79 328.107 1061.68 325.84C1063.6 323.547 1066.51 322.4 1070.4 322.4C1074.29 322.4 1077.2 323.547 1079.12 325.84C1081.04 328.107 1082 331.16 1082 335C1082 338.84 1081.04 341.907 1079.12 344.2C1077.2 346.467 1074.29 347.6 1070.4 347.6ZM1070.4 343.48C1072.29 343.48 1073.67 342.76 1074.52 341.32C1075.4 339.88 1075.84 337.773 1075.84 335C1075.84 332.227 1075.4 330.12 1074.52 328.68C1073.67 327.24 1072.29 326.52 1070.4 326.52C1068.53 326.52 1067.16 327.24 1066.28 328.68C1065.4 330.12 1064.96 332.227 1064.96 335C1064.96 337.773 1065.4 339.88 1066.28 341.32C1067.16 342.76 1068.53 343.48 1070.4 343.48ZM1086.5 355V323H1091.94V326.12H1092.9C1093.44 325.133 1094.24 324.28 1095.3 323.56C1096.4 322.84 1097.84 322.48 1099.62 322.48C1101.78 322.48 1103.57 323.013 1104.98 324.08C1106.4 325.147 1107.46 326.627 1108.18 328.52C1108.9 330.387 1109.26 332.56 1109.26 335.04C1109.26 337.52 1108.9 339.707 1108.18 341.6C1107.46 343.467 1106.38 344.92 1104.94 345.96C1103.53 347 1101.77 347.52 1099.66 347.52C1098.09 347.52 1096.8 347.227 1095.78 346.64C1094.77 346.053 1093.97 345.267 1093.38 344.28H1092.42V355H1086.5ZM1098.06 343.2C1099.66 343.2 1100.9 342.507 1101.78 341.12C1102.66 339.733 1103.1 337.693 1103.1 335C1103.1 332.307 1102.66 330.267 1101.78 328.88C1100.9 327.493 1099.66 326.8 1098.06 326.8C1096.33 326.8 1094.96 327.547 1093.94 329.04C1092.93 330.507 1092.42 332.493 1092.42 335C1092.42 337.507 1092.93 339.507 1093.94 341C1094.96 342.467 1096.33 343.2 1098.06 343.2ZM1123.58 347.6C1119.88 347.6 1117.05 346.467 1115.1 344.2C1113.16 341.907 1112.18 338.827 1112.18 334.96C1112.18 332.373 1112.61 330.147 1113.46 328.28C1114.34 326.413 1115.62 324.973 1117.3 323.96C1119.01 322.92 1121.08 322.4 1123.5 322.4C1127.02 322.4 1129.7 323.48 1131.54 325.64C1133.41 327.773 1134.34 330.92 1134.34 335.08V336.4H1117.94C1118.08 338.533 1118.62 340.227 1119.58 341.48C1120.54 342.707 1121.88 343.32 1123.58 343.32C1124.92 343.32 1125.98 342.933 1126.78 342.16C1127.58 341.387 1128.13 340.44 1128.42 339.32H1134.06C1133.8 340.84 1133.25 342.227 1132.42 343.48C1131.6 344.707 1130.45 345.707 1128.98 346.48C1127.54 347.227 1125.74 347.6 1123.58 347.6ZM1117.98 332.6H1128.58C1128.48 330.653 1127.98 329.147 1127.1 328.08C1126.25 327.013 1125.04 326.48 1123.46 326.48C1121.89 326.48 1120.64 327 1119.7 328.04C1118.77 329.053 1118.2 330.573 1117.98 332.6ZM1146.77 347.52C1144.61 347.52 1142.82 346.987 1141.41 345.92C1139.99 344.853 1138.93 343.373 1138.21 341.48C1137.49 339.587 1137.13 337.413 1137.13 334.96C1137.13 332.453 1137.49 330.267 1138.21 328.4C1138.93 326.533 1139.99 325.08 1141.41 324.04C1142.85 323 1144.62 322.48 1146.73 322.48C1148.33 322.48 1149.62 322.773 1150.61 323.36C1151.62 323.947 1152.42 324.733 1153.01 325.72H1153.97V315H1159.89V347H1154.45V343.88H1153.49C1152.95 344.867 1152.14 345.72 1151.05 346.44C1149.98 347.16 1148.55 347.52 1146.77 347.52ZM1148.33 343.2C1150.03 343.2 1151.39 342.467 1152.41 341C1153.45 339.507 1153.97 337.507 1153.97 335C1153.97 332.493 1153.45 330.507 1152.41 329.04C1151.39 327.547 1150.03 326.8 1148.33 326.8C1146.73 326.8 1145.49 327.493 1144.61 328.88C1143.73 330.267 1143.29 332.307 1143.29 335C1143.29 337.693 1143.73 339.733 1144.61 341.12C1145.49 342.507 1146.73 343.2 1148.33 343.2ZM1179.06 347C1178.44 346.28 1177.95 345.413 1177.58 344.4C1177.23 343.387 1177.06 341.867 1177.06 339.84V327.24H1173.78V323H1177.14V317H1182.94V323H1186.86V327.24H1182.98V339.16C1182.98 341.293 1183.2 342.92 1183.66 344.04C1184.14 345.133 1184.71 346.04 1185.38 346.76V347H1179.06ZM1201.09 347.6C1197.19 347.6 1194.29 346.467 1192.37 344.2C1190.47 341.907 1189.53 338.84 1189.53 335C1189.53 331.16 1190.47 328.107 1192.37 325.84C1194.29 323.547 1197.19 322.4 1201.09 322.4C1204.98 322.4 1207.89 323.547 1209.81 325.84C1211.73 328.107 1212.69 331.16 1212.69 335C1212.69 338.84 1211.73 341.907 1209.81 344.2C1207.89 346.467 1204.98 347.6 1201.09 347.6ZM1201.09 343.48C1202.98 343.48 1204.35 342.76 1205.21 341.32C1206.09 339.88 1206.53 337.773 1206.53 335C1206.53 332.227 1206.09 330.12 1205.21 328.68C1204.35 327.24 1202.98 326.52 1201.09 326.52C1199.22 326.52 1197.85 327.24 1196.97 328.68C1196.09 330.12 1195.65 332.227 1195.65 335C1195.65 337.773 1196.09 339.88 1196.97 341.32C1197.85 342.76 1199.22 343.48 1201.09 343.48ZM521.76 407.6C519.2 407.6 517.147 407.187 515.6 406.36C514.053 405.533 512.907 404.48 512.16 403.2C511.44 401.92 511.04 400.627 510.96 399.32H516.6C516.733 400.04 517.013 400.72 517.44 401.36C517.893 401.973 518.493 402.467 519.24 402.84C519.987 403.187 520.92 403.36 522.04 403.36C523.347 403.36 524.307 403.12 524.92 402.64C525.533 402.16 525.84 401.533 525.84 400.76C525.84 400.067 525.56 399.48 525 399C524.467 398.52 523.613 398.08 522.44 397.68L519.56 396.72C518.2 396.24 516.947 395.72 515.8 395.16C514.68 394.573 513.773 393.827 513.08 392.92C512.413 392.013 512.08 390.853 512.08 389.44C512.08 387.333 512.867 385.64 514.44 384.36C516.04 383.053 518.267 382.4 521.12 382.4C523.2 382.4 524.907 382.733 526.24 383.4C527.573 384.04 528.573 384.92 529.24 386.04C529.933 387.133 530.333 388.36 530.44 389.72H525C524.867 388.733 524.467 387.947 523.8 387.36C523.133 386.773 522.173 386.48 520.92 386.48C519.827 386.48 519 386.707 518.44 387.16C517.88 387.587 517.6 388.173 517.6 388.92C517.6 389.667 517.88 390.293 518.44 390.8C519.027 391.28 519.92 391.72 521.12 392.12L523.96 393.04C525.32 393.467 526.56 393.973 527.68 394.56C528.827 395.12 529.72 395.853 530.36 396.76C531.027 397.667 531.36 398.84 531.36 400.28C531.36 402.467 530.533 404.24 528.88 405.6C527.253 406.933 524.88 407.6 521.76 407.6ZM535.58 407V375H541.5V385.96H542.46C543.02 384.893 543.78 384.04 544.74 383.4C545.7 382.733 547.007 382.4 548.66 382.4C551.353 382.4 553.353 383.253 554.66 384.96C555.967 386.64 556.62 388.893 556.62 391.72V407H550.7V392.76C550.7 391 550.38 389.653 549.74 388.72C549.127 387.76 548.127 387.28 546.74 387.28C545.087 387.28 543.793 387.933 542.86 389.24C541.953 390.52 541.5 392.12 541.5 394.04V407H535.58ZM572.399 407.6C568.506 407.6 565.599 406.467 563.679 404.2C561.786 401.907 560.839 398.84 560.839 395C560.839 391.16 561.786 388.107 563.679 385.84C565.599 383.547 568.506 382.4 572.399 382.4C576.293 382.4 579.199 383.547 581.119 385.84C583.039 388.107 583.999 391.16 583.999 395C583.999 398.84 583.039 401.907 581.119 404.2C579.199 406.467 576.293 407.6 572.399 407.6ZM572.399 403.48C574.293 403.48 575.666 402.76 576.519 401.32C577.399 399.88 577.839 397.773 577.839 395C577.839 392.227 577.399 390.12 576.519 388.68C575.666 387.24 574.293 386.52 572.399 386.52C570.533 386.52 569.159 387.24 568.279 388.68C567.399 390.12 566.959 392.227 566.959 395C566.959 397.773 567.399 399.88 568.279 401.32C569.159 402.76 570.533 403.48 572.399 403.48ZM590.822 407L586.982 383.08V383H592.502L595.582 402.52H596.502L600.062 383H609.542L613.102 402.52H614.022L617.102 383H622.262V383.08L618.422 407H608.742L605.102 387.36H604.102L600.502 407H590.822ZM636.453 407.6C632.799 407.6 630.026 406.467 628.133 404.2C626.239 401.907 625.293 398.84 625.293 395C625.293 390.973 626.279 387.867 628.253 385.68C630.253 383.493 632.999 382.4 636.493 382.4C639.586 382.4 642.026 383.227 643.813 384.88C645.599 386.533 646.666 388.8 647.013 391.68H641.173C640.986 390.08 640.493 388.853 639.693 388C638.893 387.12 637.853 386.68 636.573 386.68C634.866 386.68 633.573 387.413 632.693 388.88C631.839 390.32 631.412 392.36 631.412 395C631.412 397.64 631.839 399.693 632.693 401.16C633.573 402.6 634.853 403.32 636.533 403.32C637.839 403.32 638.893 402.88 639.693 402C640.493 401.12 640.986 399.893 641.173 398.32H647.013C646.639 401.173 645.546 403.44 643.733 405.12C641.946 406.773 639.519 407.6 636.453 407.6ZM659.481 407.52C657.295 407.52 655.481 406.987 654.041 405.92C652.601 404.853 651.521 403.373 650.801 401.48C650.108 399.587 649.761 397.413 649.761 394.96C649.761 392.453 650.121 390.267 650.841 388.4C651.561 386.533 652.641 385.08 654.081 384.04C655.521 383 657.321 382.48 659.481 382.48C661.188 382.48 662.575 382.827 663.641 383.52C664.735 384.187 665.548 385.053 666.081 386.12H667.041V383H672.481V407H667.041V403.88H666.081C665.548 404.867 664.748 405.72 663.681 406.44C662.615 407.16 661.215 407.52 659.481 407.52ZM660.921 403.2C662.655 403.2 664.028 402.467 665.041 401C666.081 399.507 666.601 397.507 666.601 395C666.601 392.493 666.081 390.507 665.041 389.04C664.028 387.547 662.655 386.8 660.921 386.8C659.348 386.8 658.108 387.493 657.201 388.88C656.321 390.267 655.881 392.307 655.881 395C655.881 397.693 656.321 399.733 657.201 401.12C658.108 402.507 659.348 403.2 660.921 403.2ZM687.323 407.6C684.763 407.6 682.709 407.187 681.163 406.36C679.616 405.533 678.469 404.48 677.723 403.2C677.003 401.92 676.603 400.627 676.522 399.32H682.163C682.296 400.04 682.576 400.72 683.003 401.36C683.456 401.973 684.056 402.467 684.803 402.84C685.549 403.187 686.483 403.36 687.602 403.36C688.909 403.36 689.869 403.12 690.483 402.64C691.096 402.16 691.403 401.533 691.403 400.76C691.403 400.067 691.123 399.48 690.562 399C690.029 398.52 689.176 398.08 688.003 397.68L685.123 396.72C683.763 396.24 682.509 395.72 681.363 395.16C680.243 394.573 679.336 393.827 678.642 392.92C677.976 392.013 677.642 390.853 677.642 389.44C677.642 387.333 678.429 385.64 680.003 384.36C681.602 383.053 683.829 382.4 686.683 382.4C688.763 382.4 690.469 382.733 691.803 383.4C693.136 384.04 694.136 384.92 694.803 386.04C695.496 387.133 695.896 388.36 696.003 389.72H690.562C690.429 388.733 690.029 387.947 689.362 387.36C688.696 386.773 687.736 386.48 686.483 386.48C685.389 386.48 684.563 386.707 684.003 387.16C683.443 387.587 683.162 388.173 683.162 388.92C683.162 389.667 683.443 390.293 684.003 390.8C684.589 391.28 685.483 391.72 686.683 392.12L689.523 393.04C690.883 393.467 692.123 393.973 693.243 394.56C694.389 395.12 695.283 395.853 695.923 396.76C696.589 397.667 696.923 398.84 696.923 400.28C696.923 402.467 696.096 404.24 694.443 405.6C692.816 406.933 690.443 407.6 687.323 407.6ZM710.943 407.6C707.236 407.6 704.409 406.467 702.463 404.2C700.516 401.907 699.543 398.827 699.543 394.96C699.543 392.373 699.969 390.147 700.823 388.28C701.703 386.413 702.983 384.973 704.663 383.96C706.369 382.92 708.436 382.4 710.863 382.4C714.383 382.4 717.062 383.48 718.903 385.64C720.769 387.773 721.703 390.92 721.703 395.08V396.4H705.303C705.436 398.533 705.983 400.227 706.943 401.48C707.903 402.707 709.236 403.32 710.943 403.32C712.276 403.32 713.343 402.933 714.143 402.16C714.943 401.387 715.489 400.44 715.783 399.32H721.423C721.156 400.84 720.609 402.227 719.783 403.48C718.956 404.707 717.809 405.707 716.342 406.48C714.903 407.227 713.103 407.6 710.943 407.6ZM705.343 392.6H715.943C715.836 390.653 715.343 389.147 714.463 388.08C713.609 387.013 712.396 386.48 710.823 386.48C709.249 386.48 707.996 387 707.062 388.04C706.129 389.053 705.556 390.573 705.343 392.6ZM735.736 407V383H741.176V386.6H742.136C742.59 385.4 743.31 384.4 744.296 383.6C745.31 382.8 746.723 382.4 748.536 382.4C750.19 382.4 751.563 382.773 752.656 383.52C753.776 384.267 754.616 385.293 755.176 386.6H756.136C756.616 385.373 757.376 384.373 758.416 383.6C759.456 382.8 760.856 382.4 762.616 382.4C765.23 382.4 767.163 383.253 768.416 384.96C769.67 386.64 770.296 388.893 770.296 391.72V407H764.376V392.76C764.376 391.027 764.083 389.68 763.496 388.72C762.936 387.76 762.016 387.28 760.736 387.28C759.19 387.28 758.003 387.933 757.176 389.24C756.376 390.547 755.976 392.147 755.976 394.04V407H750.056V392.76C750.056 391.027 749.763 389.68 749.176 388.72C748.616 387.76 747.71 387.28 746.456 387.28C744.91 387.28 743.723 387.933 742.896 389.24C742.07 390.547 741.656 392.147 741.656 394.04V407H735.736ZM777.543 415V414.88C778.236 413.76 778.983 412.453 779.783 410.96C780.583 409.493 781.289 408.067 781.903 406.68L773.542 383.24V383H779.423L782.423 391.4C782.769 392.44 783.116 393.547 783.463 394.72C783.836 395.893 784.209 397.36 784.583 399.12H785.543C785.916 397.36 786.276 395.893 786.622 394.72C786.996 393.547 787.369 392.44 787.743 391.4L790.743 383H796.263V383.24L788.703 404C787.769 406.56 786.863 408.773 785.983 410.64C785.103 412.507 784.356 413.96 783.743 415H777.543ZM809.424 415V383H814.864V386.12H815.824C816.357 385.133 817.157 384.28 818.224 383.56C819.317 382.84 820.757 382.48 822.544 382.48C824.704 382.48 826.49 383.013 827.904 384.08C829.317 385.147 830.384 386.627 831.104 388.52C831.824 390.387 832.184 392.56 832.184 395.04C832.184 397.52 831.824 399.707 831.104 401.6C830.384 403.467 829.304 404.92 827.864 405.96C826.45 407 824.69 407.52 822.584 407.52C821.01 407.52 819.717 407.227 818.704 406.64C817.69 406.053 816.89 405.267 816.304 404.28H815.344V415H809.424ZM820.984 403.2C822.584 403.2 823.824 402.507 824.704 401.12C825.584 399.733 826.024 397.693 826.024 395C826.024 392.307 825.584 390.267 824.704 388.88C823.824 387.493 822.584 386.8 820.984 386.8C819.25 386.8 817.877 387.547 816.864 389.04C815.85 390.507 815.344 392.493 815.344 395C815.344 397.507 815.85 399.507 816.864 401C817.877 402.467 819.25 403.2 820.984 403.2ZM844.825 407.52C842.638 407.52 840.825 406.987 839.385 405.92C837.945 404.853 836.865 403.373 836.145 401.48C835.452 399.587 835.105 397.413 835.105 394.96C835.105 392.453 835.465 390.267 836.185 388.4C836.905 386.533 837.985 385.08 839.425 384.04C840.865 383 842.665 382.48 844.825 382.48C846.532 382.48 847.918 382.827 848.985 383.52C850.078 384.187 850.892 385.053 851.425 386.12H852.385V383H857.825V407H852.385V403.88H851.425C850.892 404.867 850.092 405.72 849.025 406.44C847.958 407.16 846.558 407.52 844.825 407.52ZM846.265 403.2C847.998 403.2 849.372 402.467 850.385 401C851.425 399.507 851.945 397.507 851.945 395C851.945 392.493 851.425 390.507 850.385 389.04C849.372 387.547 847.998 386.8 846.265 386.8C844.692 386.8 843.452 387.493 842.545 388.88C841.665 390.267 841.225 392.307 841.225 395C841.225 397.693 841.665 399.733 842.545 401.12C843.452 402.507 844.692 403.2 846.265 403.2ZM872.666 407.6C870.106 407.6 868.053 407.187 866.506 406.36C864.96 405.533 863.813 404.48 863.066 403.2C862.346 401.92 861.946 400.627 861.866 399.32H867.506C867.64 400.04 867.92 400.72 868.346 401.36C868.8 401.973 869.4 402.467 870.146 402.84C870.893 403.187 871.826 403.36 872.946 403.36C874.253 403.36 875.213 403.12 875.826 402.64C876.44 402.16 876.746 401.533 876.746 400.76C876.746 400.067 876.466 399.48 875.906 399C875.373 398.52 874.52 398.08 873.346 397.68L870.466 396.72C869.106 396.24 867.853 395.72 866.706 395.16C865.586 394.573 864.68 393.827 863.986 392.92C863.32 392.013 862.986 390.853 862.986 389.44C862.986 387.333 863.773 385.64 865.346 384.36C866.946 383.053 869.173 382.4 872.026 382.4C874.106 382.4 875.813 382.733 877.146 383.4C878.48 384.04 879.48 384.92 880.146 386.04C880.84 387.133 881.24 388.36 881.346 389.72H875.906C875.773 388.733 875.373 387.947 874.706 387.36C874.04 386.773 873.08 386.48 871.826 386.48C870.733 386.48 869.906 386.707 869.346 387.16C868.786 387.587 868.506 388.173 868.506 388.92C868.506 389.667 868.786 390.293 869.346 390.8C869.933 391.28 870.826 391.72 872.026 392.12L874.866 393.04C876.226 393.467 877.466 393.973 878.586 394.56C879.733 395.12 880.626 395.853 881.266 396.76C881.933 397.667 882.266 398.84 882.266 400.28C882.266 402.467 881.44 404.24 879.786 405.6C878.16 406.933 875.786 407.6 872.666 407.6ZM889.886 407C889.273 406.28 888.78 405.413 888.406 404.4C888.06 403.387 887.886 401.867 887.886 399.84V387.24H884.606V383H887.966V377H893.766V383H897.686V387.24H893.806V399.16C893.806 401.293 894.033 402.92 894.486 404.04C894.966 405.133 895.54 406.04 896.206 406.76V407H889.886ZM911.564 415V383H917.004V386.12H917.964C918.498 385.133 919.298 384.28 920.364 383.56C921.458 382.84 922.898 382.48 924.684 382.48C926.844 382.48 928.631 383.013 930.044 384.08C931.458 385.147 932.524 386.627 933.244 388.52C933.964 390.387 934.324 392.56 934.324 395.04C934.324 397.52 933.964 399.707 933.244 401.6C932.524 403.467 931.444 404.92 930.004 405.96C928.591 407 926.831 407.52 924.724 407.52C923.151 407.52 921.858 407.227 920.844 406.64C919.831 406.053 919.031 405.267 918.444 404.28H917.484V415H911.564ZM923.124 403.2C924.724 403.2 925.964 402.507 926.844 401.12C927.724 399.733 928.164 397.693 928.164 395C928.164 392.307 927.724 390.267 926.844 388.88C925.964 387.493 924.724 386.8 923.124 386.8C921.391 386.8 920.018 387.547 919.004 389.04C917.991 390.507 917.484 392.493 917.484 395C917.484 397.507 917.991 399.507 919.004 401C920.018 402.467 921.391 403.2 923.124 403.2ZM938.806 407V383H944.206V387.32H945.166C945.326 386.547 945.619 385.813 946.046 385.12C946.472 384.427 947.139 383.867 948.046 383.44C948.952 382.987 950.166 382.76 951.686 382.76H952.846V388.16H951.246C948.952 388.16 947.286 388.747 946.246 389.92C945.232 391.093 944.726 392.867 944.726 395.24V407H938.806ZM966.009 407.6C962.115 407.6 959.209 406.467 957.289 404.2C955.395 401.907 954.449 398.84 954.449 395C954.449 391.16 955.395 388.107 957.289 385.84C959.209 383.547 962.115 382.4 966.009 382.4C969.902 382.4 972.809 383.547 974.729 385.84C976.649 388.107 977.609 391.16 977.609 395C977.609 398.84 976.649 401.907 974.729 404.2C972.809 406.467 969.902 407.6 966.009 407.6ZM966.009 403.48C967.902 403.48 969.275 402.76 970.129 401.32C971.009 399.88 971.449 397.773 971.449 395C971.449 392.227 971.009 390.12 970.129 388.68C969.275 387.24 967.902 386.52 966.009 386.52C964.142 386.52 962.769 387.24 961.889 388.68C961.009 390.12 960.569 392.227 960.569 395C960.569 397.773 961.009 399.88 961.889 401.32C962.769 402.76 964.142 403.48 966.009 403.48ZM979.671 415V414.76C980.418 413.88 981.005 412.84 981.431 411.64C981.885 410.467 982.111 408.987 982.111 407.2V383H988.031V407.84C988.031 409.76 987.818 411.24 987.391 412.28C986.965 413.32 986.431 414.227 985.791 415H979.671ZM985.071 380.08C984.005 380.08 983.191 379.8 982.631 379.24C982.071 378.653 981.791 377.907 981.791 377C981.791 376.093 982.071 375.36 982.631 374.8C983.191 374.213 984.005 373.92 985.071 373.92C986.138 373.92 986.951 374.213 987.511 374.8C988.071 375.36 988.351 376.093 988.351 377C988.351 377.907 988.071 378.653 987.511 379.24C986.951 379.8 986.138 380.08 985.071 380.08ZM1004.01 407.6C1000.3 407.6 997.472 406.467 995.525 404.2C993.578 401.907 992.605 398.827 992.605 394.96C992.605 392.373 993.032 390.147 993.885 388.28C994.765 386.413 996.045 384.973 997.725 383.96C999.432 382.92 1001.5 382.4 1003.93 382.4C1007.45 382.4 1010.12 383.48 1011.97 385.64C1013.83 387.773 1014.77 390.92 1014.77 395.08V396.4H998.365C998.498 398.533 999.045 400.227 1000.01 401.48C1000.97 402.707 1002.3 403.32 1004.01 403.32C1005.34 403.32 1006.41 402.933 1007.21 402.16C1008.01 401.387 1008.55 400.44 1008.85 399.32H1014.49C1014.22 400.84 1013.67 402.227 1012.85 403.48C1012.02 404.707 1010.87 405.707 1009.4 406.48C1007.97 407.227 1006.17 407.6 1004.01 407.6ZM998.405 392.6H1009.01C1008.9 390.653 1008.41 389.147 1007.53 388.08C1006.67 387.013 1005.46 386.48 1003.89 386.48C1002.31 386.48 1001.06 387 1000.12 388.04C999.192 389.053 998.618 390.573 998.405 392.6ZM1028.75 407.6C1025.1 407.6 1022.32 406.467 1020.43 404.2C1018.54 401.907 1017.59 398.84 1017.59 395C1017.59 390.973 1018.58 387.867 1020.55 385.68C1022.55 383.493 1025.3 382.4 1028.79 382.4C1031.88 382.4 1034.32 383.227 1036.11 384.88C1037.9 386.533 1038.96 388.8 1039.31 391.68H1033.47C1033.28 390.08 1032.79 388.853 1031.99 388C1031.19 387.12 1030.15 386.68 1028.87 386.68C1027.16 386.68 1025.87 387.413 1024.99 388.88C1024.14 390.32 1023.71 392.36 1023.71 395C1023.71 397.64 1024.14 399.693 1024.99 401.16C1025.87 402.6 1027.15 403.32 1028.83 403.32C1030.14 403.32 1031.19 402.88 1031.99 402C1032.79 401.12 1033.28 399.893 1033.47 398.32H1039.31C1038.94 401.173 1037.84 403.44 1036.03 405.12C1034.24 406.773 1031.82 407.6 1028.75 407.6ZM1047.06 407C1046.44 406.28 1045.95 405.413 1045.58 404.4C1045.23 403.387 1045.06 401.867 1045.06 399.84V387.24H1041.78V383H1045.14V377H1050.94V383H1054.86V387.24H1050.98V399.16C1050.98 401.293 1051.2 402.92 1051.66 404.04C1052.14 405.133 1052.71 406.04 1053.38 406.76V407H1047.06ZM1067.81 407.6C1065.25 407.6 1063.19 407.187 1061.65 406.36C1060.1 405.533 1058.95 404.48 1058.21 403.2C1057.49 401.92 1057.09 400.627 1057.01 399.32H1062.65C1062.78 400.04 1063.06 400.72 1063.49 401.36C1063.94 401.973 1064.54 402.467 1065.29 402.84C1066.03 403.187 1066.97 403.36 1068.09 403.36C1069.39 403.36 1070.35 403.12 1070.97 402.64C1071.58 402.16 1071.89 401.533 1071.89 400.76C1071.89 400.067 1071.61 399.48 1071.05 399C1070.51 398.52 1069.66 398.08 1068.49 397.68L1065.61 396.72C1064.25 396.24 1062.99 395.72 1061.85 395.16C1060.73 394.573 1059.82 393.827 1059.13 392.92C1058.46 392.013 1058.13 390.853 1058.13 389.44C1058.13 387.333 1058.91 385.64 1060.49 384.36C1062.09 383.053 1064.31 382.4 1067.17 382.4C1069.25 382.4 1070.95 382.733 1072.29 383.4C1073.62 384.04 1074.62 384.92 1075.29 386.04C1075.98 387.133 1076.38 388.36 1076.49 389.72H1071.05C1070.91 388.733 1070.51 387.947 1069.85 387.36C1069.18 386.773 1068.22 386.48 1066.97 386.48C1065.87 386.48 1065.05 386.707 1064.49 387.16C1063.93 387.587 1063.65 388.173 1063.65 388.92C1063.65 389.667 1063.93 390.293 1064.49 390.8C1065.07 391.28 1065.97 391.72 1067.17 392.12L1070.01 393.04C1071.37 393.467 1072.61 393.973 1073.73 394.56C1074.87 395.12 1075.77 395.853 1076.41 396.76C1077.07 397.667 1077.41 398.84 1077.41 400.28C1077.41 402.467 1076.58 404.24 1074.93 405.6C1073.3 406.933 1070.93 407.6 1067.81 407.6ZM1099.36 407.52C1097.17 407.52 1095.36 406.987 1093.92 405.92C1092.48 404.853 1091.4 403.373 1090.68 401.48C1089.98 399.587 1089.64 397.413 1089.64 394.96C1089.64 392.453 1090 390.267 1090.72 388.4C1091.44 386.533 1092.52 385.08 1093.96 384.04C1095.4 383 1097.2 382.48 1099.36 382.48C1101.06 382.48 1102.45 382.827 1103.52 383.52C1104.61 384.187 1105.42 385.053 1105.96 386.12H1106.92V383H1112.36V407H1106.92V403.88H1105.96C1105.42 404.867 1104.62 405.72 1103.56 406.44C1102.49 407.16 1101.09 407.52 1099.36 407.52ZM1100.8 403.2C1102.53 403.2 1103.9 402.467 1104.92 401C1105.96 399.507 1106.48 397.507 1106.48 395C1106.48 392.493 1105.96 390.507 1104.92 389.04C1103.9 387.547 1102.53 386.8 1100.8 386.8C1099.22 386.8 1097.98 387.493 1097.08 388.88C1096.2 390.267 1095.76 392.307 1095.76 395C1095.76 397.693 1096.2 399.733 1097.08 401.12C1097.98 402.507 1099.22 403.2 1100.8 403.2ZM1118.52 407V383H1123.96V386.6H1124.92C1125.4 385.373 1126.14 384.373 1127.16 383.6C1128.2 382.8 1129.66 382.4 1131.56 382.4C1134.28 382.4 1136.29 383.253 1137.6 384.96C1138.9 386.64 1139.56 388.893 1139.56 391.72V407H1133.64V392.76C1133.64 391 1133.32 389.653 1132.68 388.72C1132.06 387.76 1131.06 387.28 1129.68 387.28C1128.02 387.28 1126.73 387.933 1125.8 389.24C1124.89 390.52 1124.44 392.12 1124.44 394.04V407H1118.52ZM1153.38 407.52C1151.22 407.52 1149.43 406.987 1148.02 405.92C1146.6 404.853 1145.54 403.373 1144.82 401.48C1144.1 399.587 1143.74 397.413 1143.74 394.96C1143.74 392.453 1144.1 390.267 1144.82 388.4C1145.54 386.533 1146.6 385.08 1148.02 384.04C1149.46 383 1151.23 382.48 1153.34 382.48C1154.94 382.48 1156.23 382.773 1157.22 383.36C1158.23 383.947 1159.03 384.733 1159.62 385.72H1160.58V375H1166.5V407H1161.06V403.88H1160.1C1159.56 404.867 1158.75 405.72 1157.66 406.44C1156.59 407.16 1155.16 407.52 1153.38 407.52ZM1154.94 403.2C1156.64 403.2 1158 402.467 1159.02 401C1160.06 399.507 1160.58 397.507 1160.58 395C1160.58 392.493 1160.06 390.507 1159.02 389.04C1158 387.547 1156.64 386.8 1154.94 386.8C1153.34 386.8 1152.1 387.493 1151.22 388.88C1150.34 390.267 1149.9 392.307 1149.9 395C1149.9 397.693 1150.34 399.733 1151.22 401.12C1152.1 402.507 1153.34 403.2 1154.94 403.2ZM1182.27 407V383H1187.71V386.6H1188.67C1189.12 385.4 1189.84 384.4 1190.83 383.6C1191.84 382.8 1193.25 382.4 1195.07 382.4C1196.72 382.4 1198.09 382.773 1199.19 383.52C1200.31 384.267 1201.15 385.293 1201.71 386.6H1202.67C1203.15 385.373 1203.91 384.373 1204.95 383.6C1205.99 382.8 1207.39 382.4 1209.15 382.4C1211.76 382.4 1213.69 383.253 1214.95 384.96C1216.2 386.64 1216.83 388.893 1216.83 391.72V407H1210.91V392.76C1210.91 391.027 1210.61 389.68 1210.03 388.72C1209.47 387.76 1208.55 387.28 1207.27 387.28C1205.72 387.28 1204.53 387.933 1203.71 389.24C1202.91 390.547 1202.51 392.147 1202.51 394.04V407H1196.59V392.76C1196.59 391.027 1196.29 389.68 1195.71 388.72C1195.15 387.76 1194.24 387.28 1192.99 387.28C1191.44 387.28 1190.25 387.933 1189.43 389.24C1188.6 390.547 1188.19 392.147 1188.19 394.04V407H1182.27ZM1224.07 415V414.88C1224.77 413.76 1225.51 412.453 1226.31 410.96C1227.11 409.493 1227.82 408.067 1228.43 406.68L1220.07 383.24V383H1225.95L1228.95 391.4C1229.3 392.44 1229.65 393.547 1229.99 394.72C1230.37 395.893 1230.74 397.36 1231.11 399.12H1232.07C1232.45 397.36 1232.81 395.893 1233.15 394.72C1233.53 393.547 1233.9 392.44 1234.27 391.4L1237.27 383H1242.79V383.24L1235.23 404C1234.3 406.56 1233.39 408.773 1232.51 410.64C1231.63 412.507 1230.89 413.96 1230.27 415H1224.07ZM521.76 467.6C519.2 467.6 517.147 467.187 515.6 466.36C514.053 465.533 512.907 464.48 512.16 463.2C511.44 461.92 511.04 460.627 510.96 459.32H516.6C516.733 460.04 517.013 460.72 517.44 461.36C517.893 461.973 518.493 462.467 519.24 462.84C519.987 463.187 520.92 463.36 522.04 463.36C523.347 463.36 524.307 463.12 524.92 462.64C525.533 462.16 525.84 461.533 525.84 460.76C525.84 460.067 525.56 459.48 525 459C524.467 458.52 523.613 458.08 522.44 457.68L519.56 456.72C518.2 456.24 516.947 455.72 515.8 455.16C514.68 454.573 513.773 453.827 513.08 452.92C512.413 452.013 512.08 450.853 512.08 449.44C512.08 447.333 512.867 445.64 514.44 444.36C516.04 443.053 518.267 442.4 521.12 442.4C523.2 442.4 524.907 442.733 526.24 443.4C527.573 444.04 528.573 444.92 529.24 446.04C529.933 447.133 530.333 448.36 530.44 449.72H525C524.867 448.733 524.467 447.947 523.8 447.36C523.133 446.773 522.173 446.48 520.92 446.48C519.827 446.48 519 446.707 518.44 447.16C517.88 447.587 517.6 448.173 517.6 448.92C517.6 449.667 517.88 450.293 518.44 450.8C519.027 451.28 519.92 451.72 521.12 452.12L523.96 453.04C525.32 453.467 526.56 453.973 527.68 454.56C528.827 455.12 529.72 455.853 530.36 456.76C531.027 457.667 531.36 458.84 531.36 460.28C531.36 462.467 530.533 464.24 528.88 465.6C527.253 466.933 524.88 467.6 521.76 467.6ZM535.62 467V435H541.5V452.36H543.42L550.42 443H556.78V443.24L548.38 454.24L557.74 466.76V467H550.78L543.42 456.84H541.5V467H535.62ZM561.361 467V443H567.281V467H561.361ZM564.321 440.08C563.255 440.08 562.441 439.8 561.881 439.24C561.321 438.653 561.041 437.907 561.041 437C561.041 436.093 561.321 435.36 561.881 434.8C562.441 434.213 563.255 433.92 564.321 433.92C565.388 433.92 566.201 434.213 566.761 434.8C567.321 435.36 567.601 436.093 567.601 437C567.601 437.907 567.321 438.653 566.761 439.24C566.201 439.8 565.388 440.08 564.321 440.08ZM575.375 467C574.655 466.173 574.135 465.24 573.815 464.2C573.495 463.133 573.335 461.68 573.335 459.84V435H579.295V459.2C579.295 461.253 579.522 462.84 579.975 463.96C580.428 465.08 581.015 466.013 581.735 466.76V467H575.375ZM587.563 467C586.843 466.173 586.323 465.24 586.002 464.2C585.683 463.133 585.523 461.68 585.523 459.84V435H591.483V459.2C591.483 461.253 591.709 462.84 592.163 463.96C592.616 465.08 593.203 466.013 593.923 466.76V467H587.563ZM606.51 467.6C603.95 467.6 601.897 467.187 600.35 466.36C598.803 465.533 597.657 464.48 596.91 463.2C596.19 461.92 595.79 460.627 595.71 459.32H601.35C601.483 460.04 601.763 460.72 602.19 461.36C602.643 461.973 603.243 462.467 603.99 462.84C604.737 463.187 605.67 463.36 606.79 463.36C608.097 463.36 609.057 463.12 609.67 462.64C610.283 462.16 610.59 461.533 610.59 460.76C610.59 460.067 610.31 459.48 609.75 459C609.217 458.52 608.363 458.08 607.19 457.68L604.31 456.72C602.95 456.24 601.697 455.72 600.55 455.16C599.43 454.573 598.523 453.827 597.83 452.92C597.163 452.013 596.83 450.853 596.83 449.44C596.83 447.333 597.617 445.64 599.19 444.36C600.79 443.053 603.017 442.4 605.87 442.4C607.95 442.4 609.657 442.733 610.99 443.4C612.323 444.04 613.323 444.92 613.99 446.04C614.683 447.133 615.083 448.36 615.19 449.72H609.75C609.617 448.733 609.217 447.947 608.55 447.36C607.883 446.773 606.923 446.48 605.67 446.48C604.577 446.48 603.75 446.707 603.19 447.16C602.63 447.587 602.35 448.173 602.35 448.92C602.35 449.667 602.63 450.293 603.19 450.8C603.777 451.28 604.67 451.72 605.87 452.12L608.71 453.04C610.07 453.467 611.31 453.973 612.43 454.56C613.577 455.12 614.47 455.853 615.11 456.76C615.777 457.667 616.11 458.84 616.11 460.28C616.11 462.467 615.283 464.24 613.63 465.6C612.003 466.933 609.63 467.6 606.51 467.6ZM630.099 467V435.8H636.219V467H630.099ZM660.158 467.52C657.998 467.52 656.211 466.987 654.798 465.92C653.385 464.853 652.318 463.373 651.598 461.48C650.878 459.587 650.518 457.413 650.518 454.96C650.518 452.453 650.878 450.267 651.598 448.4C652.318 446.533 653.385 445.08 654.798 444.04C656.238 443 658.011 442.48 660.118 442.48C661.718 442.48 663.011 442.773 663.998 443.36C665.011 443.947 665.811 444.733 666.398 445.72H667.358V435H673.278V467H667.838V463.88H666.878C666.345 464.867 665.531 465.72 664.438 466.44C663.371 467.16 661.945 467.52 660.158 467.52ZM661.718 463.2C663.425 463.2 664.785 462.467 665.798 461C666.838 459.507 667.358 457.507 667.358 455C667.358 452.493 666.838 450.507 665.798 449.04C664.785 447.547 663.425 446.8 661.718 446.8C660.118 446.8 658.878 447.493 657.998 448.88C657.118 450.267 656.678 452.307 656.678 455C656.678 457.693 657.118 459.733 657.998 461.12C658.878 462.507 660.118 463.2 661.718 463.2ZM689.239 467.6C685.533 467.6 682.706 466.467 680.759 464.2C678.813 461.907 677.839 458.827 677.839 454.96C677.839 452.373 678.266 450.147 679.119 448.28C679.999 446.413 681.279 444.973 682.959 443.96C684.666 442.92 686.733 442.4 689.159 442.4C692.679 442.4 695.359 443.48 697.199 445.64C699.066 447.773 699.999 450.92 699.999 455.08V456.4H683.599C683.733 458.533 684.279 460.227 685.239 461.48C686.199 462.707 687.533 463.32 689.239 463.32C690.573 463.32 691.639 462.933 692.439 462.16C693.239 461.387 693.786 460.44 694.079 459.32H699.719C699.453 460.84 698.906 462.227 698.079 463.48C697.253 464.707 696.106 465.707 694.639 466.48C693.199 467.227 691.399 467.6 689.239 467.6ZM683.639 452.6H694.239C694.133 450.653 693.639 449.147 692.759 448.08C691.906 447.013 690.693 446.48 689.119 446.48C687.546 446.48 686.293 447 685.359 448.04C684.426 449.053 683.853 450.573 683.639 452.6ZM708.482 467L701.482 443.24V443H707.442L712.842 462.16H713.802L719.202 443H724.682V443.24L717.682 467H708.482ZM738.083 467.6C734.376 467.6 731.55 466.467 729.603 464.2C727.656 461.907 726.683 458.827 726.683 454.96C726.683 452.373 727.11 450.147 727.963 448.28C728.843 446.413 730.123 444.973 731.803 443.96C733.51 442.92 735.576 442.4 738.003 442.4C741.523 442.4 744.203 443.48 746.043 445.64C747.91 447.773 748.843 450.92 748.843 455.08V456.4H732.443C732.576 458.533 733.123 460.227 734.083 461.48C735.043 462.707 736.376 463.32 738.083 463.32C739.416 463.32 740.483 462.933 741.283 462.16C742.083 461.387 742.63 460.44 742.923 459.32H748.563C748.296 460.84 747.75 462.227 746.923 463.48C746.096 464.707 744.95 465.707 743.483 466.48C742.043 467.227 740.243 467.6 738.083 467.6ZM732.483 452.6H743.083C742.976 450.653 742.483 449.147 741.603 448.08C740.75 447.013 739.536 446.48 737.963 446.48C736.39 446.48 735.136 447 734.203 448.04C733.27 449.053 732.696 450.573 732.483 452.6ZM755.188 467C754.468 466.173 753.948 465.24 753.627 464.2C753.308 463.133 753.148 461.68 753.148 459.84V435H759.108V459.2C759.108 461.253 759.334 462.84 759.788 463.96C760.241 465.08 760.828 466.013 761.548 466.76V467H755.188ZM775.415 467.6C771.522 467.6 768.615 466.467 766.695 464.2C764.802 461.907 763.855 458.84 763.855 455C763.855 451.16 764.802 448.107 766.695 445.84C768.615 443.547 771.522 442.4 775.415 442.4C779.308 442.4 782.215 443.547 784.135 445.84C786.055 448.107 787.015 451.16 787.015 455C787.015 458.84 786.055 461.907 784.135 464.2C782.215 466.467 779.308 467.6 775.415 467.6ZM775.415 463.48C777.308 463.48 778.682 462.76 779.535 461.32C780.415 459.88 780.855 457.773 780.855 455C780.855 452.227 780.415 450.12 779.535 448.68C778.682 447.24 777.308 446.52 775.415 446.52C773.548 446.52 772.175 447.24 771.295 448.68C770.415 450.12 769.975 452.227 769.975 455C769.975 457.773 770.415 459.88 771.295 461.32C772.175 462.76 773.548 463.48 775.415 463.48ZM791.517 475V443H796.958V446.12H797.918C798.451 445.133 799.251 444.28 800.318 443.56C801.411 442.84 802.851 442.48 804.638 442.48C806.798 442.48 808.584 443.013 809.998 444.08C811.411 445.147 812.477 446.627 813.197 448.52C813.918 450.387 814.278 452.56 814.278 455.04C814.278 457.52 813.918 459.707 813.197 461.6C812.477 463.467 811.398 464.92 809.958 465.96C808.544 467 806.784 467.52 804.678 467.52C803.104 467.52 801.811 467.227 800.797 466.64C799.784 466.053 798.984 465.267 798.398 464.28H797.438V475H791.517ZM803.078 463.2C804.678 463.2 805.918 462.507 806.798 461.12C807.678 459.733 808.117 457.693 808.117 455C808.117 452.307 807.678 450.267 806.798 448.88C805.918 447.493 804.678 446.8 803.078 446.8C801.344 446.8 799.971 447.547 798.957 449.04C797.944 450.507 797.438 452.493 797.438 455C797.438 457.507 797.944 459.507 798.957 461C799.971 462.467 801.344 463.2 803.078 463.2ZM828.599 467.6C824.892 467.6 822.065 466.467 820.119 464.2C818.172 461.907 817.199 458.827 817.199 454.96C817.199 452.373 817.625 450.147 818.479 448.28C819.359 446.413 820.639 444.973 822.319 443.96C824.025 442.92 826.092 442.4 828.519 442.4C832.039 442.4 834.719 443.48 836.559 445.64C838.425 447.773 839.359 450.92 839.359 455.08V456.4H822.959C823.092 458.533 823.639 460.227 824.599 461.48C825.559 462.707 826.892 463.32 828.599 463.32C829.932 463.32 830.999 462.933 831.799 462.16C832.599 461.387 833.145 460.44 833.439 459.32H839.079C838.812 460.84 838.265 462.227 837.439 463.48C836.612 464.707 835.465 465.707 833.999 466.48C832.559 467.227 830.759 467.6 828.599 467.6ZM822.999 452.6H833.599C833.492 450.653 832.999 449.147 832.119 448.08C831.265 447.013 830.052 446.48 828.479 446.48C826.905 446.48 825.652 447 824.719 448.04C823.785 449.053 823.212 450.573 822.999 452.6ZM851.783 467.52C849.623 467.52 847.836 466.987 846.423 465.92C845.01 464.853 843.943 463.373 843.223 461.48C842.503 459.587 842.143 457.413 842.143 454.96C842.143 452.453 842.503 450.267 843.223 448.4C843.943 446.533 845.01 445.08 846.423 444.04C847.863 443 849.636 442.48 851.743 442.48C853.343 442.48 854.636 442.773 855.623 443.36C856.636 443.947 857.436 444.733 858.023 445.72H858.983V435H864.903V467H859.463V463.88H858.503C857.97 464.867 857.156 465.72 856.063 466.44C854.996 467.16 853.57 467.52 851.783 467.52ZM853.343 463.2C855.05 463.2 856.41 462.467 857.423 461C858.463 459.507 858.983 457.507 858.983 455C858.983 452.493 858.463 450.507 857.423 449.04C856.41 447.547 855.05 446.8 853.343 446.8C851.743 446.8 850.503 447.493 849.623 448.88C848.743 450.267 848.303 452.307 848.303 455C848.303 457.693 848.743 459.733 849.623 461.12C850.503 462.507 851.743 463.2 853.343 463.2ZM884.074 467C883.46 466.28 882.967 465.413 882.594 464.4C882.247 463.387 882.074 461.867 882.074 459.84V447.24H878.794V443H882.154V437H887.954V443H891.874V447.24H887.994V459.16C887.994 461.293 888.22 462.92 888.674 464.04C889.154 465.133 889.727 466.04 890.394 466.76V467H884.074ZM896.142 467V435H902.062V445.96H903.023C903.583 444.893 904.343 444.04 905.302 443.4C906.262 442.733 907.569 442.4 909.223 442.4C911.916 442.4 913.916 443.253 915.223 444.96C916.529 446.64 917.182 448.893 917.182 451.72V467H911.262V452.76C911.262 451 910.943 449.653 910.303 448.72C909.689 447.76 908.689 447.28 907.303 447.28C905.649 447.28 904.356 447.933 903.423 449.24C902.516 450.52 902.062 452.12 902.062 454.04V467H896.142ZM922.962 467V443H928.362V447.32H929.322C929.482 446.547 929.775 445.813 930.202 445.12C930.629 444.427 931.295 443.867 932.202 443.44C933.109 442.987 934.322 442.76 935.842 442.76H937.002V448.16H935.402C933.109 448.16 931.442 448.747 930.402 449.92C929.389 451.093 928.882 452.867 928.882 455.24V467H922.962ZM950.165 467.6C946.272 467.6 943.365 466.467 941.445 464.2C939.552 461.907 938.605 458.84 938.605 455C938.605 451.16 939.552 448.107 941.445 445.84C943.365 443.547 946.272 442.4 950.165 442.4C954.058 442.4 956.965 443.547 958.885 445.84C960.805 448.107 961.765 451.16 961.765 455C961.765 458.84 960.805 461.907 958.885 464.2C956.965 466.467 954.058 467.6 950.165 467.6ZM950.165 463.48C952.058 463.48 953.432 462.76 954.285 461.32C955.165 459.88 955.605 457.773 955.605 455C955.605 452.227 955.165 450.12 954.285 448.68C953.432 447.24 952.058 446.52 950.165 446.52C948.298 446.52 946.925 447.24 946.045 448.68C945.165 450.12 944.725 452.227 944.725 455C944.725 457.773 945.165 459.88 946.045 461.32C946.925 462.76 948.298 463.48 950.165 463.48ZM974.028 467.6C971.308 467.6 969.281 466.76 967.948 465.08C966.614 463.373 965.948 461.107 965.948 458.28V443H971.868V457.24C971.868 458.973 972.174 460.32 972.788 461.28C973.428 462.24 974.441 462.72 975.828 462.72C977.508 462.72 978.801 462.067 979.707 460.76C980.614 459.453 981.068 457.853 981.068 455.96V443H986.988V467H981.668V463.4H980.708C980.308 464.627 979.561 465.64 978.467 466.44C977.401 467.213 975.921 467.6 974.028 467.6ZM1003.01 475.6C1000.9 475.6 999.18 475.333 997.847 474.8C996.54 474.293 995.514 473.64 994.767 472.84C994.047 472.067 993.527 471.253 993.207 470.4C992.887 469.573 992.7 468.827 992.647 468.16H998.447C998.58 468.96 998.98 469.68 999.647 470.32C1000.34 470.987 1001.46 471.32 1003.01 471.32C1004.71 471.32 1006.01 470.827 1006.89 469.84C1007.79 468.853 1008.25 467.387 1008.25 465.44V462.64H1007.29C1006.89 463.76 1006.18 464.653 1005.17 465.32C1004.15 465.987 1002.81 466.32 1001.13 466.32C998.034 466.32 995.66 465.24 994.007 463.08C992.354 460.92 991.527 458 991.527 454.32C991.527 451.973 991.887 449.907 992.607 448.12C993.354 446.307 994.434 444.907 995.847 443.92C997.287 442.907 999.074 442.4 1001.21 442.4C1002.89 442.4 1004.22 442.733 1005.21 443.4C1006.22 444.04 1006.97 444.893 1007.45 445.96H1008.41V443H1013.85V465.32C1013.85 468.6 1012.95 471.133 1011.17 472.92C1009.38 474.707 1006.66 475.6 1003.01 475.6ZM1002.57 462C1004.25 462 1005.57 461.307 1006.53 459.92C1007.49 458.533 1007.97 456.68 1007.97 454.36C1007.97 452.013 1007.49 450.16 1006.53 448.8C1005.57 447.413 1004.25 446.72 1002.57 446.72C1000.99 446.72 999.754 447.36 998.847 448.64C997.967 449.92 997.527 451.827 997.527 454.36C997.527 456.92 997.967 458.84 998.847 460.12C999.754 461.373 1000.99 462 1002.57 462ZM1019.99 467V435H1025.91V445.96H1026.87C1027.43 444.893 1028.19 444.04 1029.15 443.4C1030.11 442.733 1031.41 442.4 1033.07 442.4C1035.76 442.4 1037.76 443.253 1039.07 444.96C1040.37 446.64 1041.03 448.893 1041.03 451.72V467H1035.11V452.76C1035.11 451 1034.79 449.653 1034.15 448.72C1033.53 447.76 1032.53 447.28 1031.15 447.28C1029.49 447.28 1028.2 447.933 1027.27 449.24C1026.36 450.52 1025.91 452.12 1025.91 454.04V467H1019.99ZM1066.42 467.6C1062.52 467.6 1059.62 466.467 1057.7 464.2C1055.8 461.907 1054.86 458.84 1054.86 455C1054.86 451.16 1055.8 448.107 1057.7 445.84C1059.62 443.547 1062.52 442.4 1066.42 442.4C1070.31 442.4 1073.22 443.547 1075.14 445.84C1077.05 448.107 1078.01 451.16 1078.01 455C1078.01 458.84 1077.05 461.907 1075.14 464.2C1073.22 466.467 1070.31 467.6 1066.42 467.6ZM1066.42 463.48C1068.31 463.48 1069.68 462.76 1070.54 461.32C1071.42 459.88 1071.86 457.773 1071.86 455C1071.86 452.227 1071.42 450.12 1070.54 448.68C1069.68 447.24 1068.31 446.52 1066.42 446.52C1064.55 446.52 1063.18 447.24 1062.3 448.68C1061.41 450.12 1060.97 452.227 1060.97 455C1060.97 457.773 1061.41 459.88 1062.3 461.32C1063.18 462.76 1064.55 463.48 1066.42 463.48ZM1090.28 467.6C1087.56 467.6 1085.53 466.76 1084.2 465.08C1082.86 463.373 1082.2 461.107 1082.2 458.28V443H1088.12V457.24C1088.12 458.973 1088.42 460.32 1089.04 461.28C1089.68 462.24 1090.69 462.72 1092.08 462.72C1093.76 462.72 1095.05 462.067 1095.96 460.76C1096.86 459.453 1097.32 457.853 1097.32 455.96V443H1103.24V467H1097.92V463.4H1096.96C1096.56 464.627 1095.81 465.64 1094.72 466.44C1093.65 467.213 1092.17 467.6 1090.28 467.6ZM1112.78 467C1112.16 466.28 1111.67 465.413 1111.3 464.4C1110.95 463.387 1110.78 461.867 1110.78 459.84V447.24H1107.5V443H1110.86V437H1116.66V443H1120.58V447.24H1116.7V459.16C1116.7 461.293 1116.92 462.92 1117.38 464.04C1117.86 465.133 1118.43 466.04 1119.1 466.76V467H1112.78ZM1134.45 467V443H1139.9V446.6H1140.86C1141.31 445.4 1142.03 444.4 1143.02 443.6C1144.03 442.8 1145.44 442.4 1147.26 442.4C1148.91 442.4 1150.28 442.773 1151.38 443.52C1152.5 444.267 1153.34 445.293 1153.89 446.6H1154.86C1155.34 445.373 1156.1 444.373 1157.14 443.6C1158.18 442.8 1159.57 442.4 1161.34 442.4C1163.95 442.4 1165.88 443.253 1167.14 444.96C1168.39 446.64 1169.02 448.893 1169.02 451.72V467H1163.1V452.76C1163.1 451.027 1162.8 449.68 1162.22 448.72C1161.66 447.76 1160.74 447.28 1159.46 447.28C1157.91 447.28 1156.72 447.933 1155.89 449.24C1155.1 450.547 1154.7 452.147 1154.7 454.04V467H1148.78V452.76C1148.78 451.027 1148.48 449.68 1147.89 448.72C1147.34 447.76 1146.43 447.28 1145.17 447.28C1143.63 447.28 1142.44 447.933 1141.62 449.24C1140.79 450.547 1140.38 452.147 1140.38 454.04V467H1134.45ZM1176.26 475V474.88C1176.95 473.76 1177.7 472.453 1178.5 470.96C1179.3 469.493 1180.01 468.067 1180.62 466.68L1172.26 443.24V443H1178.14L1181.14 451.4C1181.49 452.44 1181.83 453.547 1182.18 454.72C1182.55 455.893 1182.93 457.36 1183.3 459.12H1184.26C1184.63 457.36 1184.99 455.893 1185.34 454.72C1185.71 453.547 1186.09 452.44 1186.46 451.4L1189.46 443H1194.98V443.24L1187.42 464C1186.49 466.56 1185.58 468.773 1184.7 470.64C1183.82 472.507 1183.07 473.96 1182.46 475H1176.26ZM522.64 527.6C518.987 527.6 516.213 526.467 514.32 524.2C512.427 521.907 511.48 518.84 511.48 515C511.48 510.973 512.467 507.867 514.44 505.68C516.44 503.493 519.187 502.4 522.68 502.4C525.773 502.4 528.213 503.227 530 504.88C531.787 506.533 532.853 508.8 533.2 511.68H527.36C527.173 510.08 526.68 508.853 525.88 508C525.08 507.12 524.04 506.68 522.76 506.68C521.053 506.68 519.76 507.413 518.88 508.88C518.027 510.32 517.6 512.36 517.6 515C517.6 517.64 518.027 519.693 518.88 521.16C519.76 522.6 521.04 523.32 522.72 523.32C524.027 523.32 525.08 522.88 525.88 522C526.68 521.12 527.173 519.893 527.36 518.32H533.2C532.827 521.173 531.733 523.44 529.92 525.12C528.133 526.773 525.707 527.6 522.64 527.6ZM547.509 527.6C543.615 527.6 540.709 526.467 538.789 524.2C536.895 521.907 535.949 518.84 535.949 515C535.949 511.16 536.895 508.107 538.789 505.84C540.709 503.547 543.615 502.4 547.509 502.4C551.402 502.4 554.309 503.547 556.229 505.84C558.149 508.107 559.109 511.16 559.109 515C559.109 518.84 558.149 521.907 556.229 524.2C554.309 526.467 551.402 527.6 547.509 527.6ZM547.509 523.48C549.402 523.48 550.775 522.76 551.629 521.32C552.509 519.88 552.949 517.773 552.949 515C552.949 512.227 552.509 510.12 551.629 508.68C550.775 507.24 549.402 506.52 547.509 506.52C545.642 506.52 544.269 507.24 543.389 508.68C542.509 510.12 542.069 512.227 542.069 515C542.069 517.773 542.509 519.88 543.389 521.32C544.269 522.76 545.642 523.48 547.509 523.48ZM571.611 527.52C569.451 527.52 567.665 526.987 566.251 525.92C564.838 524.853 563.771 523.373 563.051 521.48C562.331 519.587 561.971 517.413 561.971 514.96C561.971 512.453 562.331 510.267 563.051 508.4C563.771 506.533 564.838 505.08 566.251 504.04C567.691 503 569.465 502.48 571.571 502.48C573.171 502.48 574.465 502.773 575.451 503.36C576.465 503.947 577.265 504.733 577.851 505.72H578.811V495H584.731V527H579.291V523.88H578.331C577.798 524.867 576.985 525.72 575.891 526.44C574.825 527.16 573.398 527.52 571.611 527.52ZM573.171 523.2C574.878 523.2 576.238 522.467 577.251 521C578.291 519.507 578.811 517.507 578.811 515C578.811 512.493 578.291 510.507 577.251 509.04C576.238 507.547 574.878 506.8 573.171 506.8C571.571 506.8 570.331 507.493 569.451 508.88C568.571 510.267 568.131 512.307 568.131 515C568.131 517.693 568.571 519.733 569.451 521.12C570.331 522.507 571.571 523.2 573.171 523.2ZM590.892 527V503H596.812V527H590.892ZM593.852 500.08C592.786 500.08 591.973 499.8 591.413 499.24C590.853 498.653 590.573 497.907 590.573 497C590.573 496.093 590.853 495.36 591.413 494.8C591.973 494.213 592.786 493.92 593.852 493.92C594.919 493.92 595.733 494.213 596.293 494.8C596.853 495.36 597.133 496.093 597.133 497C597.133 497.907 596.853 498.653 596.293 499.24C595.733 499.8 594.919 500.08 593.852 500.08ZM602.986 527V503H608.426V506.6H609.386C609.866 505.373 610.613 504.373 611.626 503.6C612.666 502.8 614.133 502.4 616.026 502.4C618.746 502.4 620.76 503.253 622.066 504.96C623.373 506.64 624.026 508.893 624.026 511.72V527H618.106V512.76C618.106 511 617.786 509.653 617.146 508.72C616.533 507.76 615.533 507.28 614.146 507.28C612.493 507.28 611.2 507.933 610.266 509.24C609.36 510.52 608.906 512.12 608.906 514.04V527H602.986ZM639.726 535.6C637.619 535.6 635.899 535.333 634.566 534.8C633.259 534.293 632.232 533.64 631.486 532.84C630.766 532.067 630.246 531.253 629.926 530.4C629.606 529.573 629.419 528.827 629.366 528.16H635.166C635.299 528.96 635.699 529.68 636.366 530.32C637.059 530.987 638.179 531.32 639.726 531.32C641.432 531.32 642.726 530.827 643.606 529.84C644.512 528.853 644.966 527.387 644.966 525.44V522.64H644.006C643.606 523.76 642.899 524.653 641.886 525.32C640.872 525.987 639.526 526.32 637.846 526.32C634.752 526.32 632.379 525.24 630.726 523.08C629.072 520.92 628.246 518 628.246 514.32C628.246 511.973 628.606 509.907 629.326 508.12C630.072 506.307 631.152 504.907 632.566 503.92C634.006 502.907 635.792 502.4 637.926 502.4C639.606 502.4 640.939 502.733 641.926 503.4C642.939 504.04 643.686 504.893 644.166 505.96H645.126V503H650.566V525.32C650.566 528.6 649.672 531.133 647.886 532.92C646.099 534.707 643.379 535.6 639.726 535.6ZM639.286 522C640.966 522 642.286 521.307 643.246 519.92C644.206 518.533 644.686 516.68 644.686 514.36C644.686 512.013 644.206 510.16 643.246 508.8C642.286 507.413 640.966 506.72 639.286 506.72C637.712 506.72 636.472 507.36 635.566 508.64C634.686 509.92 634.246 511.827 634.246 514.36C634.246 516.92 634.686 518.84 635.566 520.12C636.472 521.373 637.712 522 639.286 522ZM663.874 535V534.76C664.621 533.88 665.208 532.84 665.634 531.64C666.088 530.467 666.314 528.987 666.314 527.2V503H672.234V527.84C672.234 529.76 672.021 531.24 671.594 532.28C671.168 533.32 670.634 534.227 669.994 535H663.874ZM669.274 500.08C668.208 500.08 667.394 499.8 666.834 499.24C666.274 498.653 665.994 497.907 665.994 497C665.994 496.093 666.274 495.36 666.834 494.8C667.394 494.213 668.208 493.92 669.274 493.92C670.341 493.92 671.154 494.213 671.714 494.8C672.274 495.36 672.554 496.093 672.554 497C672.554 497.907 672.274 498.653 671.714 499.24C671.154 499.8 670.341 500.08 669.274 500.08ZM688.368 527.6C684.475 527.6 681.568 526.467 679.648 524.2C677.755 521.907 676.808 518.84 676.808 515C676.808 511.16 677.755 508.107 679.648 505.84C681.568 503.547 684.475 502.4 688.368 502.4C692.261 502.4 695.168 503.547 697.088 505.84C699.008 508.107 699.968 511.16 699.968 515C699.968 518.84 699.008 521.907 697.088 524.2C695.168 526.467 692.261 527.6 688.368 527.6ZM688.368 523.48C690.261 523.48 691.635 522.76 692.488 521.32C693.368 519.88 693.808 517.773 693.808 515C693.808 512.227 693.368 510.12 692.488 508.68C691.635 507.24 690.261 506.52 688.368 506.52C686.501 506.52 685.128 507.24 684.248 508.68C683.368 510.12 682.928 512.227 682.928 515C682.928 517.773 683.368 519.88 684.248 521.32C685.128 522.76 686.501 523.48 688.368 523.48ZM712.231 527.6C709.511 527.6 707.484 526.76 706.151 525.08C704.817 523.373 704.151 521.107 704.151 518.28V503H710.071V517.24C710.071 518.973 710.377 520.32 710.991 521.28C711.631 522.24 712.644 522.72 714.031 522.72C715.711 522.72 717.004 522.067 717.911 520.76C718.817 519.453 719.271 517.853 719.271 515.96V503H725.191V527H719.871V523.4H718.911C718.511 524.627 717.764 525.64 716.671 526.44C715.604 527.213 714.124 527.6 712.231 527.6ZM731.29 527V503H736.69V507.32H737.65C737.81 506.547 738.103 505.813 738.53 505.12C738.957 504.427 739.623 503.867 740.53 503.44C741.437 502.987 742.65 502.76 744.17 502.76H745.33V508.16H743.73C741.437 508.16 739.77 508.747 738.73 509.92C737.717 511.093 737.21 512.867 737.21 515.24V527H731.29ZM749.611 527V503H755.051V506.6H756.011C756.491 505.373 757.238 504.373 758.251 503.6C759.291 502.8 760.758 502.4 762.651 502.4C765.371 502.4 767.385 503.253 768.691 504.96C769.998 506.64 770.651 508.893 770.651 511.72V527H764.731V512.76C764.731 511 764.411 509.653 763.771 508.72C763.158 507.76 762.158 507.28 760.771 507.28C759.118 507.28 757.825 507.933 756.891 509.24C755.985 510.52 755.531 512.12 755.531 514.04V527H749.611ZM786.271 527.6C782.564 527.6 779.737 526.467 777.791 524.2C775.844 521.907 774.871 518.827 774.871 514.96C774.871 512.373 775.297 510.147 776.151 508.28C777.031 506.413 778.311 504.973 779.991 503.96C781.697 502.92 783.764 502.4 786.191 502.4C789.711 502.4 792.391 503.48 794.231 505.64C796.097 507.773 797.031 510.92 797.031 515.08V516.4H780.631C780.764 518.533 781.311 520.227 782.271 521.48C783.231 522.707 784.564 523.32 786.271 523.32C787.604 523.32 788.671 522.933 789.471 522.16C790.271 521.387 790.817 520.44 791.111 519.32H796.751C796.484 520.84 795.937 522.227 795.111 523.48C794.284 524.707 793.137 525.707 791.671 526.48C790.231 527.227 788.431 527.6 786.271 527.6ZM780.671 512.6H791.271C791.164 510.653 790.671 509.147 789.791 508.08C788.937 507.013 787.724 506.48 786.151 506.48C784.577 506.48 783.324 507 782.391 508.04C781.457 509.053 780.884 510.573 780.671 512.6ZM802.058 535V534.88C802.751 533.76 803.498 532.453 804.298 530.96C805.098 529.493 805.805 528.067 806.418 526.68L798.058 503.24V503H803.938L806.938 511.4C807.285 512.44 807.631 513.547 807.978 514.72C808.351 515.893 808.725 517.36 809.098 519.12H810.058C810.431 517.36 810.791 515.893 811.138 514.72C811.511 513.547 811.885 512.44 812.258 511.4L815.258 503H820.778V503.24L813.218 524C812.285 526.56 811.378 528.773 810.498 530.64C809.618 532.507 808.871 533.96 808.258 535H802.058ZM824.158 527.24C822.984 527.24 822.078 526.92 821.438 526.28C820.824 525.613 820.517 524.747 820.517 523.68C820.517 522.56 820.824 521.68 821.438 521.04C822.078 520.4 822.984 520.08 824.158 520.08C825.331 520.08 826.211 520.4 826.797 521.04C827.411 521.68 827.718 522.56 827.718 523.68C827.718 524.747 827.411 525.613 826.797 526.28C826.211 526.92 825.331 527.24 824.158 527.24Z" fill="black"/>
<rect x="657" y="9" width="101" height="20" rx="10" fill="white"/>
</svg>
